#!OML:ASF E:\inclinewalkrobotboard\Project 1\Capture day 1\Session 1\subject1.ASF
:FULLY-SPECIFIED
:DEGREES
368
root 7.42982 23.141 -11.7979 -171.223 5.40624 178.543
lowerback -2.21067 0.1389 -8.6673
upperback 3.90503 0.6364 1.7298
thorax 5.24752 -0.0278027 6.7489
lowerneck -7.8435 -3.24314 -4.006
upperneck 39.7346 0.209896 4.61037
head 15.2342 1.84176 3.19324
rclavicle 6.4605e-016 -2.00773e-014
rhumerus -49.6186 -45.1456 -51.1131
rradius 14.8558
rwrist 36.0174
rhand -14.9028 -37.5958
rfingers 7.12502
rthumb 11.2585 -67.2736
lclavicle 6.4605e-016 -2.00773e-014
lhumerus -24.1138 -2.21942 91.4677
lradius 30.3571
lwrist -16.1391
lhand -25.3858 -23.3245
lfingers 7.12502
lthumb 1.13896 6.65218
rfemur -27.7068 6.00456 16.577
rtibia 52.6238
rfoot -12.8583 -3.96249
rtoes -38.2667
lfemur -15.7278 -6.52901 -22.9881
ltibia 11.1609
lfoot -15.8079 2.33167
ltoes -57.0351
369
root 7.41534 23.1532 -11.8537 -171.244 5.82199 178.628
lowerback -2.32609 0.0740429 -8.58781
upperback 3.95997 0.555793 1.80977
thorax 5.3865 -0.0747943 6.78666
lowerneck -7.50388 -2.93488 -4.59657
upperneck 39.1584 0.310826 5.51133
head 14.8541 1.87798 3.64377
rclavicle -5.56597e-015 1.61016e-014
rhumerus -50.5744 -45.2312 -50.1614
rradius 15.0397
rwrist 35.8507
rhand -14.6127 -37.5234
rfingers 7.12502
rthumb 11.5382 -67.1858
lclavicle -5.56597e-015 1.61016e-014
lhumerus -23.9758 -1.68171 91.4744
lradius 29.0748
lwrist -17.5515
lhand -26.8137 -24.4741
lfingers 7.12502
lthumb -0.240168 5.50551
rfemur -27.8842 7.30686 16.4032
rtibia 49.9306
rfoot -15.5151 -4.81846
rtoes -35.6675
lfemur -15.31 -6.61452 -23.0126
ltibia 10.9196
lfoot -16.2658 2.80322
ltoes -57.1422
370
root 7.4073 23.1572 -11.9056 -171.363 6.33059 178.354
lowerback -2.35531 0.109844 -8.8902
upperback 4.07007 0.635725 1.73949
thorax 5.50935 -0.0535166 6.89176
lowerneck -7.91788 -3.00061 -5.04306
upperneck 39.5797 0.169479 6.11611
head 15.1737 1.83929 4.00746
rclavicle 2.68359e-015 -6.95746e-015
rhumerus -51.6221 -45.8173 -48.961
rradius 14.9758
rwrist 36.0811
rhand -14.8372 -37.4285
rfingers 7.12502
rthumb 11.3217 -67.1029
lclavicle 2.68359e-015 -6.95746e-015
lhumerus -23.9901 -1.47933 91.4263
lradius 28.1957
lwrist -18.3152
lhand -27.4414 -24.8232
lfingers 7.12502
lthumb -0.84642 5.15482
rfemur -27.7592 8.80807 15.756
rtibia 46.648
rfoot -17.8052 -5.06099
rtoes -32.005
lfemur -14.8632 -6.61742 -23.4479
ltibia 10.7521
lfoot -16.8897 3.39103
ltoes -57.7148
371
root 7.39723 23.1769 -11.9513 -171.189 6.01028 179.157
lowerback -2.34466 -0.0131986 -7.92023
upperback 4.09203 0.411422 1.98398
thorax 5.55837 -0.131573 6.58399
lowerneck -7.48266 -2.91812 -4.37212
upperneck 38.7593 0.122789 5.4877
head 14.6616 1.78494 3.52975
rclavicle 4.12478e-015 7.15625e-015
rhumerus -52.2765 -46.2379 -48.1486
rradius 14.8561
rwrist 36.1016
rhand -15.1 -37.4864
rfingers 7.12502
rthumb 11.0683 -67.1745
lclavicle 4.12478e-015 7.15625e-015
lhumerus -24.1316 -1.38487 91.3708
lradius 27.568
lwrist -18.669
lhand -27.5042 -24.52
lfingers 7.12502
lthumb -0.907047 5.45782
rfemur -27.5496 10.0932 16.3342
rtibia 43.1752
rfoot -19.8174 -5.50877
rtoes -30.6561
lfemur -14.993 -6.94201 -22.4792
ltibia 10.9938
lfoot -17.0578 3.54237
ltoes -57.8509
372
root 7.3956 23.1903 -11.9934 -171.112 5.91029 179.28
lowerback -2.34534 -0.0583368 -7.75623
upperback 4.07263 0.337423 2.06949
thorax 5.54929 -0.16258 6.57638
lowerneck -7.0241 -3.01913 -4.28162
upperneck 38.587 -0.0648016 5.50305
head 14.4845 1.72199 3.47465
rclavicle 5.41688e-015 4.17448e-015
rhumerus -53.1166 -46.6654 -47.1322
rradius 14.7225
rwrist 36.2295
rhand -15.217 -36.9742
rfingers 7.12502
rthumb 10.9555 -66.6684
lclavicle 5.41688e-015 4.17448e-015
lhumerus -24.2368 -1.43537 91.422
lradius 26.9379
lwrist -18.7788
lhand -27.0627 -23.9401
lfingers 7.12502
lthumb -0.48067 6.03909
rfemur -26.7768 11.1907 16.0867
rtibia 38.6259
rfoot -20.6619 -5.35474
rtoes -31.1501
lfemur -14.9882 -6.84161 -22.3398
ltibia 11.1239
lfoot -17.0162 3.3414
ltoes -57.8509
373
root 7.38827 23.1956 -12.0528 -171.063 6.14952 179.331
lowerback -2.68868 -0.0714383 -7.58578
upperback 4.15698 0.338851 2.11656
thorax 5.83503 -0.170733 6.53509
lowerneck -7.47532 -2.79831 -4.09741
upperneck 38.5287 0.159618 5.49907
head 14.5407 1.82226 3.46935
rclavicle -3.67752e-015 -2.3059e-014
rhumerus -54.2156 -47.3672 -45.6568
rradius 14.5494
rwrist 37.1883
rhand -15.2362 -36.2191
rfingers 7.12502
rthumb 10.9369 -65.9142
lclavicle -3.67752e-015 -2.3059e-014
lhumerus -24.1619 -1.12992 91.444
lradius 26.1156
lwrist -18.957
lhand -26.7452 -23.7298
lfingers 7.12502
lthumb -0.173948 6.24986
rfemur -26.1129 12.5525 15.695
rtibia 34.5021
rfoot -21.1686 -4.33462
rtoes -32.2683
lfemur -14.6108 -6.63007 -22.3963
ltibia 10.8338
lfoot -17.1941 3.36726
ltoes -57.8647
374
root 7.38734 23.1937 -12.1272 -171.14 6.00508 179.261
lowerback -3.06929 -0.228895 -7.51311
upperback 4.28486 0.157448 2.16463
thorax 6.22238 -0.278563 6.53769
lowerneck -7.9577 -2.66964 -4.14191
upperneck 38.573 0.341636 5.41287
head 14.6612 1.86348 3.47446
rclavicle 2.08724e-015 1.98785e-016
rhumerus -55.2232 -47.8198 -44.4077
rradius 14.4967
rwrist 38.1147
rhand -15.2043 -35.8969
rfingers 7.12502
rthumb 10.9677 -65.5904
lclavicle 2.08724e-015 1.98785e-016
lhumerus -24.2564 -0.68801 91.3877
lradius 25.3504
lwrist -19.0852
lhand -26.1907 -23.458
lfingers 7.12502
lthumb 0.361582 6.52141
rfemur -25.003 13.5154 15.3272
rtibia 30.5841
rfoot -21.2448 -3.55685
rtoes -34.9048
lfemur -13.9653 -6.57199 -22.6263
ltibia 10.3665
lfoot -17.2855 3.05357
ltoes -57.6422
375
root 7.39647 23.1904 -12.1851 -171.261 5.68131 178.874
lowerback -3.16867 -0.384727 -7.83108
upperback 4.26167 -0.0270682 2.1429
thorax 6.29223 -0.388384 6.68187
lowerneck -7.73675 -2.79425 -4.28747
upperneck 38.7243 0.242855 5.44513
head 14.6931 1.82376 3.5109
rclavicle -1.25234e-014 -1.23246e-014
rhumerus -56.0841 -47.861 -43.5121
rradius 14.4518
rwrist 38.416
rhand -15.238 -35.5948
rfingers 7.12502
rthumb 10.9352 -65.29
lclavicle -1.25234e-014 -1.23246e-014
lhumerus -24.6745 -0.402598 91.3126
lradius 24.699
lwrist -19.3428
lhand -25.6137 -23.0802
lfingers 7.12502
lthumb 0.918862 6.89759
rfemur -23.9492 14.2252 14.6571
rtibia 27.1794
rfoot -20.6393 -2.85
rtoes -35.1874
lfemur -13.6236 -6.35473 -23.1286
ltibia 10.3113
lfoot -17.1897 2.50173
ltoes -57.8383
376
root 7.4143 23.1856 -12.2187 -171.232 5.40274 178.696
lowerback -3.18005 -0.382675 -7.94661
upperback 4.12035 -0.0266994 2.08142
thorax 6.14791 -0.384555 6.6801
lowerneck -7.28764 -3.01312 -4.2559
upperneck 38.8471 -0.0313469 5.55998
head 14.6694 1.75983 3.52364
rclavicle -1.10325e-014 -1.31198e-014
rhumerus -57.2009 -47.9853 -42.5945
rradius 14.4427
rwrist 38.4478
rhand -14.9854 -35.324
rfingers 7.12502
rthumb 11.1788 -65.0062
lclavicle -1.10325e-014 -1.31198e-014
lhumerus -24.8583 -0.166401 91.108
lradius 23.7432
lwrist -20.1196
lhand -25.5621 -23.1967
lfingers 7.12502
lthumb 0.968647 6.78082
rfemur -23.3031 14.6346 14.3557
rtibia 25.1688
rfoot -19.8205 -2.6291
rtoes -34.5174
lfemur -13.8603 -5.78621 -23.1857
ltibia 10.8055
lfoot -17.2605 1.85023
ltoes -58.6336
377
root 7.42238 23.1625 -12.3251 -171.391 4.5992 178.349
lowerback -4.03983 -0.607734 -7.8746
upperback 4.23465 -0.255462 1.93011
thorax 6.80567 -0.52537 6.46238
lowerneck -6.84701 -3.20285 -4.23944
upperneck 38.8564 -0.268694 5.60422
head 14.5902 1.69137 3.50579
rclavicle 5.36719e-015 1.51076e-014
rhumerus -57.7021 -47.8661 -42.4989
rradius 14.4679
rwrist 37.9085
rhand -14.6493 -35.6621
rfingers 7.12502
rthumb 11.503 -65.3265
lclavicle 5.36719e-015 1.51076e-014
lhumerus -24.7364 0.263928 90.8331
lradius 22.5025
lwrist -21.1943
lhand -25.3867 -23.3148
lfingers 7.12502
lthumb 1.13811 6.66194
rfemur -21.2662 13.4178 14.2719
rtibia 22.3343
rfoot -18.3925 -2.43305
rtoes -33.3024
lfemur -12.684 -6.21172 -23.8724
ltibia 9.79593
lfoot -17.2482 1.4663
ltoes -59.2457
378
root 7.43949 23.152 -12.3749 -171.54 4.23194 178.392
lowerback -4.0432 -0.651924 -7.66986
upperback 4.15689 -0.337629 1.96195
thorax 6.73335 -0.552704 6.37048
lowerneck -7.24478 -3.048 -4.10689
upperneck 38.8608 -0.0941396 5.62368
head 14.6692 1.78377 3.52039
rclavicle 1.74931e-014 1.55052e-014
rhumerus -57.6535 -47.6407 -42.898
rradius 14.3525
rwrist 37.2504
rhand -14.9624 -36.1068
rfingers 7.12502
rthumb 11.201 -65.7878
lclavicle 1.74931e-014 1.55052e-014
lhumerus -24.8276 0.686326 90.5507
lradius 21.5226
lwrist -22.1389
lhand -24.8443 -23.1115
lfingers 7.12502
lthumb 1.66193 6.86178
rfemur -19.929 12.5519 14.5402
rtibia 20.5373
rfoot -17.3006 -2.8558
rtoes -30.5817
lfemur -12.8162 -5.2547 -23.68
ltibia 10.5523
lfoot -17.3552 0.317938
ltoes -59.476
